<?xml version="1.0" encoding="UTF-8" standalone="no"?>
<svg
   id="svg3880"
   height="48"
   width="48"
   version="1.1"
   sodipodi:docname="nectar-hex-gloss.svg"
   xml:space="preserve"
   inkscape:version="1.2.2 (b0a8486541, 2022-12-01)"
   xmlns:inkscape="http://www.inkscape.org/namespaces/inkscape"
   xmlns:sodipodi="http://sodipodi.sourceforge.net/DTD/sodipodi-0.dtd"
   xmlns:xlink="http://www.w3.org/1999/xlink"
   xmlns="http://www.w3.org/2000/svg"
   xmlns:svg="http://www.w3.org/2000/svg"
   xmlns:rdf="http://www.w3.org/1999/02/22-rdf-syntax-ns#"
   xmlns:cc="http://creativecommons.org/ns#"
   xmlns:dc="http://purl.org/dc/elements/1.1/"><sodipodi:namedview
     id="namedview27"
     pagecolor="#ffffff"
     bordercolor="#666666"
     borderopacity="1.0"
     inkscape:showpageshadow="2"
     inkscape:pageopacity="0.0"
     inkscape:pagecheckerboard="true"
     inkscape:deskcolor="#d1d1d1"
     showgrid="false"
     inkscape:zoom="27.812866"
     inkscape:cx="12.656013"
     inkscape:cy="18.894133"
     inkscape:window-width="3440"
     inkscape:window-height="1371"
     inkscape:window-x="0"
     inkscape:window-y="0"
     inkscape:window-maximized="1"
     inkscape:current-layer="svg3880" /><defs
     id="defs3882"><linearGradient
       id="linearGradient1443"><stop
         id="stop1439"
         offset="0"
         style="stop-color:#ffe16b;stop-opacity:1" /><stop
         id="stop1441"
         offset="1"
         style="stop-color:#ffffff;stop-opacity:0;" /></linearGradient><linearGradient
       id="linearGradient849"><stop
         id="stop845"
         offset="0"
         style="stop-color:#ffe16b;stop-opacity:1" /><stop
         id="stop847"
         offset="1"
         style="stop-color:#f9c440;stop-opacity:1" /></linearGradient><linearGradient
       gradientTransform="translate(81.399201,13.228125)"
       gradientUnits="userSpaceOnUse"
       xlink:href="#linearGradient8265-821-176-38-919-66-249"
       id="linearGradient3619"
       y2="33.95525"
       x2="15.214532"
       y1="22.292103"
       x1="11.566265" /><linearGradient
       id="linearGradient8265-821-176-38-919-66-249"><stop
         offset="0"
         style="stop-color:#ffffff;stop-opacity:0.27450982"
         id="stop2687" /><stop
         offset="1"
         style="stop-color:#ffffff;stop-opacity:0"
         id="stop2689" /></linearGradient><linearGradient
       gradientUnits="userSpaceOnUse"
       xlink:href="#linearGradient3881"
       id="linearGradient3648"
       y2="43.443626"
       x2="29.646643"
       y1="2"
       x1="29.646643"
       gradientTransform="translate(78.290639,15.695294)" /><linearGradient
       id="linearGradient3881"><stop
         offset="0"
         style="stop-color:#ffffff;stop-opacity:1"
         id="stop3883" /><stop
         offset="0.33380178"
         style="stop-color:#ffffff;stop-opacity:0.23529412"
         id="stop3885" /><stop
         offset="0.67927718"
         style="stop-color:#ffffff;stop-opacity:0.15686275"
         id="stop3887" /><stop
         offset="1"
         style="stop-color:#ffffff;stop-opacity:0.39215687"
         id="stop3889" /></linearGradient><linearGradient
       id="linearGradient8838"><stop
         offset="0"
         style="stop-color:#000000;stop-opacity:1"
         id="stop8840" /><stop
         offset="1"
         style="stop-color:#000000;stop-opacity:0"
         id="stop8842" /></linearGradient><radialGradient
       gradientTransform="matrix(0.96122906,0,0,0.37613261,-47.096729,45.976839)"
       gradientUnits="userSpaceOnUse"
       xlink:href="#linearGradient8838"
       id="radialGradient3878"
       fy="4.625"
       fx="62.625"
       r="10.625"
       cy="4.625"
       cx="62.625" /><linearGradient
       gradientUnits="userSpaceOnUse"
       y2="45.013279"
       x2="23.999998"
       y1="1.4961348"
       x1="23.999998"
       id="linearGradient851"
       xlink:href="#linearGradient849"
       gradientTransform="translate(78.144854,15.78181)" /><linearGradient
       inkscape:collect="always"
       xlink:href="#linearGradient849"
       id="linearGradient1435"
       x1="37.088356"
       y1="36.340488"
       x2="37.088356"
       y2="70.178391"
       gradientUnits="userSpaceOnUse" /><linearGradient
       inkscape:collect="always"
       xlink:href="#linearGradient3881"
       id="linearGradient2202"
       x1="37.12492"
       y1="36.382378"
       x2="37.12492"
       y2="70.002502"
       gradientUnits="userSpaceOnUse" /><linearGradient
       inkscape:collect="always"
       xlink:href="#linearGradient8265-821-176-38-919-66-249"
       id="linearGradient2206"
       gradientUnits="userSpaceOnUse"
       x1="37.088356"
       y1="36.340488"
       x2="37.088356"
       y2="70.178391" /><linearGradient
       inkscape:collect="always"
       xlink:href="#linearGradient849"
       id="linearGradient3318"
       gradientUnits="userSpaceOnUse"
       x1="37.088356"
       y1="36.340488"
       x2="37.088356"
       y2="70.178391" /><linearGradient
       inkscape:collect="always"
       xlink:href="#linearGradient3881"
       id="linearGradient3320"
       gradientUnits="userSpaceOnUse"
       x1="37.12492"
       y1="36.382378"
       x2="37.12492"
       y2="70.002502" /><linearGradient
       inkscape:collect="always"
       xlink:href="#linearGradient8265-821-176-38-919-66-249"
       id="linearGradient3322"
       gradientUnits="userSpaceOnUse"
       x1="37.088356"
       y1="36.340488"
       x2="37.088356"
       y2="70.178391" /><linearGradient
       inkscape:collect="always"
       xlink:href="#linearGradient849"
       id="linearGradient3332"
       gradientUnits="userSpaceOnUse"
       x1="37.088356"
       y1="36.340488"
       x2="37.088356"
       y2="70.178391" /><linearGradient
       inkscape:collect="always"
       xlink:href="#linearGradient3881"
       id="linearGradient3334"
       gradientUnits="userSpaceOnUse"
       x1="37.12492"
       y1="36.382378"
       x2="37.12492"
       y2="70.002502" /><linearGradient
       inkscape:collect="always"
       xlink:href="#linearGradient8265-821-176-38-919-66-249"
       id="linearGradient3336"
       gradientUnits="userSpaceOnUse"
       x1="37.088356"
       y1="36.340488"
       x2="37.088356"
       y2="70.178391" /><radialGradient
       inkscape:collect="always"
       xlink:href="#linearGradient8838"
       id="radialGradient3354"
       gradientUnits="userSpaceOnUse"
       gradientTransform="matrix(1.1694676,0,0,0.27992586,-40.156387,43.895973)"
       cx="62.625"
       cy="4.625"
       fx="62.625"
       fy="4.625"
       r="10.625" /><radialGradient
       inkscape:collect="always"
       xlink:href="#linearGradient8838"
       id="radialGradient3423"
       gradientUnits="userSpaceOnUse"
       gradientTransform="matrix(1.0465346,0,0,0.25050041,-51.751631,32.29319)"
       cx="62.625"
       cy="4.625"
       fx="62.625"
       fy="4.625"
       r="10.625" /><radialGradient
       inkscape:collect="always"
       xlink:href="#linearGradient8838"
       id="radialGradient3427"
       gradientUnits="userSpaceOnUse"
       gradientTransform="matrix(0.96038474,0,0,0.22987942,-26.506748,21.04461)"
       cx="62.625"
       cy="4.625"
       fx="62.625"
       fy="4.625"
       r="10.625" /></defs><metadata
     id="metadata3885"><rdf:RDF><cc:Work
         rdf:about=""><dc:format>image/svg+xml</dc:format><dc:type
           rdf:resource="http://purl.org/dc/dcmitype/StillImage" /></cc:Work></rdf:RDF></metadata><path
     d="m 43.841427,22.107802 c 0,1.348939 -4.568526,2.442472 -10.204088,2.442472 -5.63556,0 -10.204086,-1.093533 -10.204086,-2.442472 0,-1.348939 4.568526,-2.442472 10.204086,-2.442472 5.635562,0 10.204088,1.093533 10.204088,2.442472 z"
     id="path3425"
     style="display:inline;overflow:visible;visibility:visible;opacity:0.3;fill:url(#radialGradient3427);fill-opacity:1;fill-rule:evenodd;stroke:none;stroke-width:0.34699;marker:none" /><path
     d="m 24.90702,33.451754 c 0,1.469944 -4.978338,2.66157 -11.11943,2.66157 -6.141089,0 -11.119428,-1.191626 -11.119428,-2.66157 0,-1.469944 4.978339,-2.66157 11.119428,-2.66157 6.141092,0 11.11943,1.191626 11.11943,2.66157 z"
     id="path3421"
     style="display:inline;overflow:visible;visibility:visible;opacity:0.3;fill:url(#radialGradient3423);fill-opacity:1;fill-rule:evenodd;stroke:none;stroke-width:0.378116;marker:none" /><path
     d="m 45.507103,45.19063 c 0,1.642614 -5.563127,2.974216 -12.425593,2.974216 -6.862463,0 -12.425591,-1.331602 -12.425591,-2.974216 0,-1.642614 5.563128,-2.974216 12.425591,-2.974216 6.862466,0 12.425593,1.331602 12.425593,2.974216 z"
     id="path3352"
     style="display:inline;overflow:visible;visibility:visible;opacity:0.3;fill:url(#radialGradient3354);fill-opacity:1;fill-rule:evenodd;stroke:none;stroke-width:0.422532;marker:none" /><g
     id="g3308"
     transform="matrix(0.56799455,0,0,0.56799455,-1.1786912,11.059533)"
     style="stroke-width:1.76058;stroke-dasharray:none"><polygon
       id="polygon34"
       points="46.236,70.155 55.975,53.063 46.236,35.971 26.759,35.971 17.021,53.063 26.759,70.155 "
       style="fill:url(#linearGradient1435);fill-opacity:1;stroke:#ad5f00;stroke-width:1.63076;stroke-dasharray:none;stroke-opacity:0.498039"
       transform="matrix(1.0796043,0,0,1.0796043,-14.651077,-36.574936)" /><polygon
       id="polygon1437"
       points="55.975,53.063 46.236,35.971 26.759,35.971 17.021,53.063 26.759,70.155 46.236,70.155 "
       style="fill:none;fill-opacity:1;stroke:url(#linearGradient2202);stroke-width:1.73466;stroke-dasharray:none;stroke-opacity:0.498039"
       transform="matrix(1.0149433,0,0,1.0149433,-12.279844,-33.002259)" /><path
       id="polygon2204"
       style="fill:url(#linearGradient2206);fill-opacity:1;stroke:none;stroke-width:1.63076;stroke-dasharray:none;stroke-opacity:0.498039"
       d="m 26.75921,35.971237 -9.738449,17.092489 0.99682,1.75122 36.399332,-4.484788 -8.180804,-14.358921 z"
       transform="matrix(1.0796043,0,0,1.0796043,-14.651077,-36.574936)" /></g><g
     id="g3316"
     transform="matrix(0.56799455,0,0,0.56799455,19.68995,-0.74896714)"
     style="stroke-width:1.76058;stroke-dasharray:none"><polygon
       id="polygon3310"
       points="46.236,35.971 26.759,35.971 17.021,53.063 26.759,70.155 46.236,70.155 55.975,53.063 "
       style="fill:url(#linearGradient3318);fill-opacity:1;stroke:#ad5f00;stroke-width:1.63076;stroke-dasharray:none;stroke-opacity:0.498039"
       transform="matrix(1.0796043,0,0,1.0796043,-14.651077,-36.574936)" /><polygon
       id="polygon3312"
       points="26.759,35.971 17.021,53.063 26.759,70.155 46.236,70.155 55.975,53.063 46.236,35.971 "
       style="fill:none;fill-opacity:1;stroke:url(#linearGradient3320);stroke-width:1.73466;stroke-dasharray:none;stroke-opacity:0.498039"
       transform="matrix(1.0149433,0,0,1.0149433,-12.279844,-33.002259)" /><path
       id="path3314"
       style="fill:url(#linearGradient3322);fill-opacity:1;stroke:none;stroke-width:1.63076;stroke-dasharray:none;stroke-opacity:0.498039"
       d="m 26.75921,35.971237 -9.738449,17.092489 0.99682,1.75122 36.399332,-4.484788 -8.180804,-14.358921 z"
       transform="matrix(1.0796043,0,0,1.0796043,-14.651077,-36.574936)" /></g><g
     id="g3330"
     transform="matrix(0.56799455,0,0,0.56799455,19.568525,23.055921)"
     style="stroke-width:1.76058;stroke-dasharray:none"><polygon
       id="polygon3324"
       points="55.975,53.063 46.236,35.971 26.759,35.971 17.021,53.063 26.759,70.155 46.236,70.155 "
       style="fill:url(#linearGradient3332);fill-opacity:1;stroke:#ad5f00;stroke-width:1.63076;stroke-dasharray:none;stroke-opacity:0.498039"
       transform="matrix(1.0796043,0,0,1.0796043,-14.651077,-36.574936)" /><polygon
       id="polygon3326"
       points="46.236,35.971 26.759,35.971 17.021,53.063 26.759,70.155 46.236,70.155 55.975,53.063 "
       style="fill:none;fill-opacity:1;stroke:url(#linearGradient3334);stroke-width:1.73466;stroke-dasharray:none;stroke-opacity:0.498039"
       transform="matrix(1.0149433,0,0,1.0149433,-12.279844,-33.002259)" /><path
       id="path3328"
       style="fill:url(#linearGradient3336);fill-opacity:1;stroke:none;stroke-width:1.63076;stroke-dasharray:none;stroke-opacity:0.498039"
       d="m 26.75921,35.971237 -9.738449,17.092489 0.99682,1.75122 36.399332,-4.484788 -8.180804,-14.358921 z"
       transform="matrix(1.0796043,0,0,1.0796043,-14.651077,-36.574936)" /></g></svg>
