<?xml version="1.0" encoding="UTF-8"?>
<svg xmlns="http://www.w3.org/2000/svg" width="267" height="55" viewBox="0 0 267 55" fill="none">
  <path d="M50.6536 44.8477C51.8312 44.8477 52.7859 43.8921 52.7859 42.7134C52.7859 41.5347 51.8312 40.5791 50.6536 40.5791C49.476 40.5791 48.5214 41.5347 48.5214 42.7134C48.5214 43.8921 49.476 44.8477 50.6536 44.8477Z" fill="#0D1A75"></path>
  <path d="M19.6861 47.3288C18.372 48.2719 17.0332 49.1405 15.6447 49.9595C14.2563 50.7785 12.843 51.4982 11.3554 52.1186C10.6116 52.4164 9.86777 52.7142 9.12396 52.9376C8.38014 53.1609 7.61154 53.3595 6.84293 53.4588C6.09912 53.5828 5.33051 53.6077 4.63628 53.4836C3.94206 53.3595 3.34701 53.0865 2.9751 52.6646C2.60319 52.2427 2.40484 51.6471 2.35526 50.977C2.33046 50.4558 2.38005 49.885 2.47922 49.3142C1.73541 49.3142 1.04119 49.0661 0.470929 48.6442C0.371754 49.4631 0.34696 50.3069 0.470929 51.2004C0.54531 51.6719 0.669279 52.1434 0.892423 52.615C1.11557 53.0617 1.41309 53.5084 1.785 53.8807C2.15691 54.2281 2.62799 54.5011 3.07428 54.6748C3.54536 54.8485 4.01644 54.9478 4.46273 54.9726C4.90902 55.0223 5.3553 54.9974 5.80159 54.9478C6.24788 54.923 6.66937 54.8485 7.09087 54.7493C7.93386 54.5755 8.72726 54.3274 9.49586 54.0296C10.2645 53.7566 11.0331 53.4339 11.7769 53.0865C14.7521 51.6719 17.529 49.9595 20.2316 48.1726C22.9341 46.361 25.587 44.4748 28.1656 42.4894C28.5623 42.1916 28.959 41.869 29.3309 41.5712L28.0168 40.2559C25.4383 42.7872 22.6614 45.1945 19.6861 47.3288Z" fill="#0D1A75"></path>
  <path d="M53.48 8.76249C54.2058 8.76249 54.7941 8.1736 54.7941 7.44716C54.7941 6.72073 54.2058 6.13184 53.48 6.13184C52.7543 6.13184 52.166 6.72073 52.166 7.44716C52.166 8.1736 52.7543 8.76249 53.48 8.76249Z" fill="#0D1A75"></path>
  <path d="M2.52897 48.3469C3.92567 48.3469 5.05793 47.2136 5.05793 45.8156C5.05793 44.4175 3.92567 43.2842 2.52897 43.2842C1.13226 43.2842 0 44.4175 0 45.8156C0 47.2136 1.13226 48.3469 2.52897 48.3469Z" fill="#0D1A75"></path>
  <path d="M37.7858 42.7384C37.6371 42.6143 37.4883 42.515 37.3396 42.3909C36.1495 41.423 34.9593 40.4552 33.794 39.4376C33.7197 39.388 33.6453 39.3136 33.5709 39.2639L32.9263 38.6187L31.3147 37.0055L26.2815 31.9676H27.6204C29.7527 31.9676 32.7775 30.28 32.7775 26.5077V22.9588C32.7775 22.6114 32.7527 22.2888 32.7279 21.9661C32.48 19.7078 31.2651 18.4669 28.8849 18.0698C28.3146 17.9705 27.6948 17.9209 26.9758 17.9209H21.0748C20.455 18.4917 19.8351 19.0873 19.2401 19.6829C18.7194 20.2041 18.1988 20.7253 17.7029 21.2464H26.5047C28.4386 21.2464 29.3312 21.9165 29.3312 23.3311V26.4581C29.3312 27.8727 28.4634 28.4931 26.5047 28.4931H17.8764L21.1988 31.8931L27.1245 37.8245C27.7196 38.3705 28.3146 38.8917 28.9097 39.4128H28.8849C30.1742 40.5296 31.4634 41.6464 32.8023 42.7136H32.8271L32.8519 42.7384H37.8106H37.7858Z" fill="#0D1A75"></path>
  <path d="M52.8109 9.40806C52.5134 10.2519 52.1415 11.0708 51.7448 11.8898C51.0257 13.3292 50.1828 14.6942 49.2902 16.0095C48.3976 17.3248 47.4306 18.6153 46.4637 19.881C44.505 22.4124 42.3975 24.8197 40.3148 27.227C40.2652 27.3015 40.1909 27.3511 40.1413 27.4255C37.9842 25.0679 35.7528 22.7599 33.4717 20.5263C33.6949 21.246 33.8189 22.0402 33.8189 22.9832V23.1321C35.5792 24.9686 37.29 26.8796 38.9512 28.7905C37.29 30.6518 35.5792 32.5131 33.8684 34.3496C33.2734 34.9949 32.6535 35.6401 32.0337 36.2854L33.7197 37.973C34.3891 37.3773 35.0338 36.7817 35.6784 36.1861C37.4388 34.5233 39.1495 32.7613 40.7611 30.9496C42.0008 32.4387 43.2157 33.9774 44.4058 35.516C45.3976 36.8065 46.3397 38.1467 47.2571 39.4868C47.6042 40.008 47.9513 40.554 48.2984 41.0752C48.7199 40.4795 49.3646 40.0328 50.1332 39.8839C48.8439 37.9482 47.4306 36.0868 45.9926 34.2752C44.7033 32.662 43.3645 31.0737 42.0008 29.5102C44.2322 26.8299 46.2901 24.0007 48.1001 21.0226C49.786 18.2183 51.2985 15.2898 52.4886 12.2373C52.8357 11.3686 53.1332 10.4752 53.3811 9.55696C53.1828 9.48251 52.9844 9.45769 52.8109 9.40806ZM54.1498 47.5029C54.0258 47.081 53.877 46.6839 53.7283 46.2868C53.4803 45.6912 53.2324 45.0956 52.9349 44.5248C52.439 45.1452 51.6952 45.5671 50.8522 45.6168C51.1001 46.1131 51.2985 46.6343 51.4968 47.1554C51.7448 47.8255 51.9431 48.5204 52.0175 49.1408C52.0423 49.4138 52.0671 49.662 52.0423 49.8605C52.0423 49.8854 52.0423 49.935 52.0175 49.9598C51.9927 50.0591 51.9679 50.1583 51.9431 50.208C51.9183 50.2328 51.9183 50.2576 51.8935 50.2824L51.8439 50.3321C51.8191 50.3569 51.7696 50.3817 51.72 50.4065C51.6952 50.4065 51.6952 50.4065 51.6704 50.4313C51.6208 50.4562 51.5712 50.4562 51.4968 50.481H51.472C51.3481 50.5058 51.1745 50.5058 51.0009 50.481H50.9514C50.9018 50.481 50.8522 50.481 50.8026 50.4562H50.7778C50.7282 50.4562 50.6786 50.4562 50.629 50.4313C50.6042 50.4313 50.5547 50.4313 50.5299 50.4065C50.5051 50.4065 50.4555 50.3817 50.4059 50.3817C49.8852 50.2824 49.315 50.0839 48.7695 49.8605C48.7447 49.8605 48.7199 49.8357 48.6703 49.8357C48.0009 49.5627 47.3315 49.2401 46.662 48.8927C45.9926 48.5452 45.348 48.173 44.7033 47.7511C43.414 46.9569 42.1496 46.0883 40.9099 45.1949C40.29 44.7481 39.6702 44.2766 39.0503 43.8051H34.0668C34.4883 44.1525 34.9346 44.4751 35.3809 44.7978C37.9346 46.7087 40.538 48.5204 43.3397 50.1087C44.0339 50.5058 44.7529 50.9029 45.4967 51.2503C46.2405 51.6226 46.9844 51.9452 47.7778 52.243C47.8273 52.2678 47.9017 52.2927 47.9513 52.3175C48.1745 52.3919 48.4224 52.4912 48.6455 52.5656C48.8439 52.6153 49.0422 52.6897 49.2406 52.7394C49.3398 52.7642 49.4141 52.789 49.5133 52.8138C49.5381 52.8138 49.5629 52.8138 49.5877 52.8386C49.8356 52.8883 50.0836 52.9379 50.3315 52.9627C50.3811 52.9627 50.4307 52.9875 50.5051 52.9875H50.5299C50.5794 52.9875 50.6538 52.9875 50.7034 53.0124C51.0753 53.0372 51.4472 53.0372 51.8687 52.9627H51.9183C52.0423 52.9379 52.191 52.9131 52.315 52.8635C52.4638 52.8138 52.6125 52.7642 52.7613 52.6897C52.9101 52.6153 53.0588 52.5408 53.2076 52.4416C53.3564 52.3423 53.4803 52.2182 53.6043 52.0941C53.7283 51.97 53.8522 51.8211 53.9266 51.6722C54.0258 51.5233 54.1002 51.3744 54.1745 51.2255C54.2489 51.0766 54.2985 50.9277 54.3233 50.7788C54.3729 50.6299 54.3977 50.481 54.4225 50.3569C54.4721 50.0839 54.4721 49.8109 54.4721 49.5627C54.4721 49.3146 54.4473 49.0664 54.3977 48.843C54.3729 48.3467 54.2737 47.9248 54.1498 47.5029ZM2.33076 5.33799C2.35555 5.41245 2.38035 5.46208 2.40514 5.53653C2.42993 5.6358 2.47952 5.71026 2.50432 5.80953C2.65308 5.73507 2.80184 5.66062 2.9754 5.61099C2.92581 5.46208 2.85143 5.33799 2.80184 5.18909C2.65308 4.84164 2.52911 4.46938 2.40514 4.09712C2.28117 3.72486 2.182 3.3526 2.13241 2.98033C2.08282 2.60807 2.05803 2.23581 2.10762 1.86355C2.1572 1.49129 2.28117 1.14384 2.52911 0.895667C2.77705 0.647492 3.12416 0.498587 3.49607 0.448952C3.86797 0.399317 4.23988 0.399317 4.61179 0.448952C4.98369 0.498587 5.3556 0.597857 5.72751 0.697127C6.09941 0.796397 6.47132 0.920484 6.81843 1.06939C7.19034 1.21829 7.53745 1.3672 7.88457 1.5161C8.23168 1.68983 8.57879 1.83873 8.9259 2.03727C9.62013 2.38472 10.2896 2.78179 10.959 3.17887C11.5045 3.5015 12.0499 3.84895 12.5706 4.19639C14.3557 5.36281 16.0417 6.65332 17.7029 7.96865L18.5211 8.63872C19.0914 9.11025 19.6864 9.6066 20.2567 10.0781C20.3806 10.1774 20.5046 10.2767 20.6286 10.4008C20.7773 10.5248 20.9013 10.6489 21.0501 10.773C21.2732 10.9716 21.4963 11.1701 21.7443 11.3686C21.7691 11.3935 21.7939 11.4183 21.8187 11.4183C22.8848 12.3613 23.9509 13.3292 25.0171 14.3219C24.0501 15.1409 23.1079 15.9847 22.1658 16.8285H26.827C26.9758 16.7044 27.0997 16.5803 27.2485 16.4314C27.3973 16.5555 27.5212 16.7044 27.67 16.8285C28.5378 16.8781 29.3312 16.9774 30.0254 17.1759C29.4304 16.6299 28.8105 16.084 28.2155 15.538C28.3146 15.4635 28.389 15.3891 28.4882 15.2898C30.8684 13.1555 33.2734 11.046 35.7776 9.06061C37.042 8.06792 38.3065 7.10003 39.6454 6.20661C40.9595 5.31318 42.3231 4.46938 43.7612 3.74968C45.1744 3.02997 46.662 2.40953 48.224 2.08691C48.9926 1.91318 49.786 1.83873 50.5794 1.91318C51.3481 1.98764 52.1167 2.26063 52.6621 2.80661C53.2076 3.3526 53.4803 4.12194 53.5795 4.89128C53.5795 5.01537 53.6043 5.13945 53.6043 5.26354C53.7283 5.26354 53.8522 5.28836 53.9514 5.31318C53.9514 5.16427 53.9266 5.01537 53.9018 4.84164C53.8026 4.02267 53.5051 3.17887 52.8853 2.58326C52.2902 1.96282 51.4472 1.66501 50.629 1.54092C49.8108 1.41683 48.9679 1.49129 48.1497 1.61537C46.5133 1.86355 44.9513 2.38472 43.414 2.95552C40.3644 4.14676 37.4387 5.66062 34.6123 7.34821C31.8106 9.0358 29.108 10.9219 26.5543 12.9818C26.3559 13.1555 26.1576 13.3292 25.9344 13.5029C23.6782 11.592 21.3724 9.78032 18.9922 8.01828C18.3723 7.54675 17.7277 7.10003 17.0831 6.65332L15.1491 5.31318C13.8351 4.44457 12.521 3.60077 11.1573 2.80661C10.4879 2.40953 9.79369 2.03727 9.07467 1.68983L8.47962 1.39202C7.95895 1.14384 7.41348 0.895667 6.86802 0.697127C6.12421 0.399317 5.38039 0.17596 4.58699 0.0518727C4.19029 0.00223777 3.79359 -0.0225797 3.3721 0.0270553C3.17375 0.0518727 2.9754 0.101508 2.77705 0.200778C2.5787 0.300047 2.40514 0.399317 2.25638 0.548222C2.10762 0.697127 1.98365 0.870849 1.88447 1.06939C1.7853 1.26793 1.73571 1.46647 1.71092 1.66501C1.63653 2.08691 1.66133 2.48398 1.71092 2.88106C1.83488 3.82413 2.05803 4.59347 2.33076 5.33799ZM4.85972 43.2591C6.09941 40.9263 7.56225 38.6679 9.09946 36.4839C10.7111 34.2503 12.4218 32.0912 14.207 29.9817C14.5541 29.5847 14.9012 29.1876 15.2483 28.7657C15.3475 28.6664 15.4219 28.5671 15.521 28.4679C15.8186 28.1204 16.1161 27.773 16.4384 27.4504C16.5376 27.3511 16.612 27.2518 16.7112 27.1525C17.331 26.4825 17.9508 25.7876 18.5707 25.1175C18.0252 24.5715 17.4798 24.0255 16.9591 23.4547C16.7359 23.2066 16.488 22.9832 16.2649 22.735C16.1161 22.5861 15.9425 22.4124 15.7938 22.2387L14.2318 20.6007C13.0169 19.2854 11.802 17.9701 10.6367 16.6051L9.37219 15.1161C8.80194 14.446 8.25647 13.7511 7.71101 13.0562C6.76885 11.8402 5.85148 10.5993 5.03328 9.30879C4.83493 9.48251 4.61179 9.63142 4.36385 9.73069C4.73576 10.4008 5.10766 11.0708 5.50436 11.7161C5.90106 12.3862 6.32256 13.081 6.74405 13.7511C7.04158 14.2226 7.31431 14.6694 7.61183 15.1161H7.63663C8.18209 15.9599 8.75235 16.8037 9.3226 17.6226C10.9838 20.0051 12.7441 22.338 14.5789 24.5964C13.9095 25.3657 13.24 26.135 12.5954 26.9044C10.5127 29.4358 8.5292 32.0416 6.69446 34.7963C5.77709 36.1613 4.90931 37.5759 4.11591 39.0153C3.52086 40.0825 2.9506 41.1992 2.42993 42.316H2.52911C3.42169 42.3657 4.23988 42.7131 4.85972 43.2591Z" fill="#0D1A75"></path>
  <path d="M3.54546 9.33369C4.43552 9.33369 5.15706 8.61147 5.15706 7.72056C5.15706 6.82965 4.43552 6.10742 3.54546 6.10742C2.6554 6.10742 1.93387 6.82965 1.93387 7.72056C1.93387 8.61147 2.6554 9.33369 3.54546 9.33369Z" fill="#0D1A75"></path>
  <path d="M63.8685 18.0199H67.414V42.763H63.8685V18.0199ZM170.63 42.7878V39.4374H186.672C189.027 39.4374 190.118 38.6184 190.118 36.8316V34.325C190.118 32.7863 189.151 32.0666 187.094 32.0666H177.35C173.085 32.0666 170.655 30.0316 170.655 26.4827V23.728C170.655 21.8666 171.3 20.4272 172.54 19.4593C173.779 18.5163 175.614 18.0448 178.019 18.0448H193.614V21.3951H177.573C175.242 21.3951 174.176 22.2141 174.176 24.0009V26.2842C174.176 27.8228 175.143 28.5425 177.201 28.5425H186.895C189.077 28.5425 190.763 28.9893 191.879 29.8331C193.019 30.7017 193.59 32.017 193.59 33.7294V37.1294C193.59 38.9907 192.945 40.4301 191.705 41.398C190.465 42.3411 188.631 42.8126 186.226 42.8126H170.63V42.7878ZM227.16 42.7878C224.656 42.7878 222.747 42.2914 221.483 41.3235C220.193 40.3308 219.549 38.8666 219.549 36.906V23.9017C219.549 21.9659 220.193 20.4769 221.483 19.4842C222.747 18.5163 224.656 18.0199 227.16 18.0199H240.4V21.3703H226.987C224.334 21.3703 223.094 22.2885 223.094 24.2988V36.5338C223.094 38.5192 224.334 39.4622 226.987 39.4622H240.4V42.8126H227.16V42.7878ZM108.051 42.7878V21.3703H98.1335V18.0199H121.539V21.3703H111.596V42.7878H108.051ZM253.07 42.7878V21.3703H243.152V18.0199H266.533V21.3703H256.615V42.7878H253.07ZM73.9843 23.1323V42.7878H70.4884V17.9951H72.8686L74.1827 18.0199L91.8358 37.6506V17.9951H95.3566V42.7878H93.1499L91.7119 42.8126L73.9843 23.1323ZM147.448 32.0666H153.424L164.11 42.763H169.168L158.531 32.1163H159.87C162.027 32.1163 165.052 30.4039 165.052 26.6316V23.0827C165.052 19.5338 163.316 18.0199 159.225 18.0199H147.448V21.3703H158.754C160.688 21.3703 161.606 22.0404 161.606 23.4798V26.6068C161.606 28.0214 160.738 28.6418 158.754 28.6418H147.473M196.391 18.0199H216.772V21.3703H196.391V18.0199ZM196.391 28.6914H216.772V32.0418H196.391V28.6914ZM196.391 39.4374H216.772V42.7878H196.391V39.4374ZM124.316 18.0199H144.696V21.3703H124.316V18.0199ZM124.316 28.6914H144.696V32.0418H124.316V28.6914ZM124.316 39.4374H144.696V42.7878H124.316V39.4374Z" fill="#0D1A75"></path>
</svg>
