<?xml version="1.0" encoding="UTF-8" standalone="no"?>
<svg
   xmlns:dc="http://purl.org/dc/elements/1.1/"
   xmlns:cc="http://creativecommons.org/ns#"
   xmlns:rdf="http://www.w3.org/1999/02/22-rdf-syntax-ns#"
   xmlns:svg="http://www.w3.org/2000/svg"
   xmlns="http://www.w3.org/2000/svg"
   xmlns:sodipodi="http://sodipodi.sourceforge.net/DTD/sodipodi-0.dtd"
   xmlns:inkscape="http://www.inkscape.org/namespaces/inkscape"
   width="82.678917mm"
   height="25.507328mm"
   viewBox="0 0 234.36387 72.304716"
   version="1.1"
   id="svg66"
   sodipodi:docname="logo.svg"
   inkscape:version="0.92.4 5da689c313, 2019-01-14">
  <metadata
     id="metadata72">
    <rdf:RDF>
      <cc:Work
         rdf:about="">
        <dc:format>image/svg+xml</dc:format>
        <dc:type
           rdf:resource="http://purl.org/dc/dcmitype/StillImage" />
        <dc:title>5054_ARDC_Branding_Matrix_Nectar_RGB_FA</dc:title>
      </cc:Work>
    </rdf:RDF>
  </metadata>
  <defs
     id="defs70" />
  <sodipodi:namedview
     pagecolor="#ffffff"
     bordercolor="#666666"
     borderopacity="1"
     objecttolerance="10"
     gridtolerance="10"
     guidetolerance="10"
     inkscape:pageopacity="0"
     inkscape:pageshadow="2"
     inkscape:window-width="2252"
     inkscape:window-height="1291"
     id="namedview68"
     showgrid="false"
     fit-margin-top="0"
     fit-margin-left="0"
     fit-margin-right="0"
     fit-margin-bottom="0"
     inkscape:zoom="3.2518715"
     inkscape:cx="105.90882"
     inkscape:cy="20.143006"
     inkscape:window-x="0"
     inkscape:window-y="27"
     inkscape:window-maximized="0"
     inkscape:current-layer="svg66" />
  <title
     id="title2">5054_ARDC_Branding_Matrix_Nectar_RGB_FA</title>
  <g
     id="g12"
     transform="translate(-17.02279,-17.008)"
     style="fill:#000000">
    <polygon
       style="fill:#000000"
       points="113.907,27.174 113.934,27.174 115.99,34.015 117.65,34.015 122.362,34.015 115.605,17.008 112.18,17.008 105.354,34.015 110.02,34.015 111.795,34.015 113.85,27.174 "
       id="polygon4" />
    <path
       style="fill:#000000"
       inkscape:connector-curvature="0"
       d="m 177.943,25.512 a 8.5,8.5 0 0 0 -8.5,-8.5 h -3.79 v 5.016 h 3.79 a 3.504,3.504 0 0 1 0,7.008 h -3.79 v 4.982 h 3.79 a 8.5,8.5 0 0 0 8.5,-8.5"
       id="path6" />
    <path
       style="fill:#000000"
       inkscape:connector-curvature="0"
       d="m 192.752,25.512 a 8.5,8.5 0 0 1 8.5,-8.5 h 3.79 v 5.016 h -3.79 a 3.504,3.504 0 0 0 0,7.008 h 3.79 v 4.982 h -3.79 a 8.5,8.5 0 0 1 -8.5,-8.5"
       id="path8" />
    <path
       style="fill:#000000"
       inkscape:connector-curvature="0"
       d="m 148.652,22.869 a 5.892,5.892 0 0 0 -2.092,-4.643 c -1.471,-1.172 -3.448,-1.218 -5.24,-1.218 h -5.378 v 4.406 h 5.938 c 1.12,0 2.1,0.465 2.1,1.724 0,1.31 -0.914,1.828 -2.137,1.828 H 137.1 l 6.485,9.049 h 6.466 l -4.788,-6 a 5.209,5.209 0 0 0 3.389,-5.142"
       id="path10" />
  </g>
  <g
     id="g26"
     transform="translate(-17.02279,-17.008)">
    <path
       style="fill:#969696"
       inkscape:connector-curvature="0"
       d="M 113.8,55.458 V 75.2 h -8.43 V 42.524 h 8.672 l 13.229,18.814 V 42.524 h 8.476 V 75.2 h -8.133 z"
       id="path14" />
    <path
       style="fill:#969696"
       inkscape:connector-curvature="0"
       d="m 152.457,50.951 c 7.007,0 12.1,5.144 12.1,13.179 v 1.618 H 147.7 c 0.441,2.2 2.5,4.213 6.027,4.213 a 9.363,9.363 0 0 0 5.781,-2.009 l 3.185,4.7 c -2.352,2.107 -6.272,3.136 -9.9,3.136 -7.3,0 -12.935,-4.753 -12.935,-12.445 a 12.213,12.213 0 0 1 12.599,-12.392 z m -4.85,9.9 h 9.75 a 4.549,4.549 0 0 0 -4.9,-4.067 4.675,4.675 0 0 0 -4.85,4.064 z"
       id="path16" />
    <path
       style="fill:#969696"
       inkscape:connector-curvature="0"
       d="m 179.652,50.951 c 5.1,0 8.28,2.254 9.7,4.36 l -4.9,4.557 a 5.172,5.172 0 0 0 -4.459,-2.254 5.351,5.351 0 0 0 -5.536,5.733 5.392,5.392 0 0 0 5.536,5.781 5.324,5.324 0 0 0 4.459,-2.3 l 4.9,4.606 c -1.421,2.058 -4.606,4.361 -9.7,4.361 -7.4,0 -12.935,-5 -12.935,-12.445 0,-7.402 5.536,-12.399 12.935,-12.399 z"
       id="path18" />
    <path
       style="fill:#969696"
       inkscape:connector-curvature="0"
       d="M 194.352,68.834 V 58.1 h -3.919 v -6.561 h 3.919 v -6.468 h 7.5 v 6.468 h 4.8 V 58.1 h -4.8 v 8.624 a 2.145,2.145 0 0 0 2.107,2.4 2.932,2.932 0 0 0 1.91,-0.588 l 1.47,5.684 c -0.931,0.882 -2.792,1.568 -5.585,1.568 -4.805,0.004 -7.402,-2.397 -7.402,-6.954 z"
       id="path20" />
    <path
       style="fill:#969696"
       inkscape:connector-curvature="0"
       d="m 224.387,72.852 a 9.771,9.771 0 0 1 -7.349,2.94 c -3.626,0 -8.133,-2.45 -8.133,-7.791 0,-5.732 4.507,-7.447 8.133,-7.447 3.136,0 5.929,0.98 7.349,2.743 v -2.988 c 0,-2.058 -1.763,-3.43 -4.8,-3.43 a 10.557,10.557 0 0 0 -6.713,2.5 l -2.694,-4.752 a 16.682,16.682 0 0 1 10.73,-3.675 c 5.683,0 11.024,2.107 11.024,9.456 V 75.2 h -7.546 z m 0,-5.83 a 5.377,5.377 0 0 0 -4.213,-1.666 c -2.009,0 -3.773,0.881 -3.773,2.743 0,1.862 1.764,2.744 3.773,2.744 a 5.249,5.249 0 0 0 4.213,-1.715 z"
       id="path22" />
    <path
       style="fill:#969696"
       inkscape:connector-curvature="0"
       d="m 236.442,51.539 h 7.546 v 2.988 a 10.314,10.314 0 0 1 7.4,-3.576 v 7.3 a 6.107,6.107 0 0 0 -1.862,-0.245 c -1.96,0 -4.557,0.833 -5.536,2.2 V 75.2 h -7.546 z"
       id="path24" />
  </g>
  <g
     id="g36"
     transform="translate(-17.02279,-17.008)">
    <g
       id="g32">
      <polygon
         style="fill:#f8b20e"
         points="88.346,34.1 78.608,17.008 59.131,17.008 49.392,34.1 59.131,51.192 78.608,51.192 "
         id="polygon28" />
      <polygon
         style="fill:#f8b20e"
         points="88.346,72.027 78.608,54.934 59.131,54.934 49.392,72.027 59.131,89.119 78.608,89.119 "
         id="polygon30" />
    </g>
    <polygon
       style="fill:#f8b20e"
       points="55.975,53.063 46.236,35.971 26.759,35.971 17.021,53.063 26.759,70.155 46.236,70.155 "
       id="polygon34" />
  </g>
  <g
     id="g64"
     transform="translate(-17.02279,-17.008)">
    <path
       style="fill:#969696"
       inkscape:connector-curvature="0"
       d="m 108.922,85.656 h -1.507 v 3.464 h -2.058 v -9.669 h 4.522 a 3.011,3.011 0 0 1 3.247,3.117 2.774,2.774 0 0 1 -2.116,2.87 l 2.174,3.682 h -2.363 z m 0.652,-4.436 h -2.159 v 2.667 h 2.159 a 1.338,1.338 0 1 0 0,-2.667 z"
       id="path38" />
    <path
       style="fill:#969696"
       inkscape:connector-curvature="0"
       d="m 117.232,81.945 c 2.087,0 3.507,1.565 3.507,3.856 v 0.406 h -5.2 a 1.888,1.888 0 0 0 2.015,1.623 2.863,2.863 0 0 0 1.87,-0.7 l 0.813,1.189 a 4.366,4.366 0 0 1 -2.885,0.971 3.675,3.675 0 1 1 -0.116,-7.349 z m -1.725,3.015 h 3.449 a 1.621,1.621 0 0 0 -1.724,-1.551 1.682,1.682 0 0 0 -1.725,1.551 z"
       id="path40" />
    <path
       style="fill:#969696"
       inkscape:connector-curvature="0"
       d="m 122.118,86.917 a 4.011,4.011 0 0 0 2.421,0.957 c 0.8,0 1.174,-0.276 1.174,-0.711 0,-0.493 -0.608,-0.666 -1.4,-0.826 -1.2,-0.232 -2.755,-0.522 -2.755,-2.189 0,-1.174 1.029,-2.2 2.87,-2.2 a 4.478,4.478 0 0 1 2.827,0.956 l -0.739,1.262 a 2.953,2.953 0 0 0 -2.073,-0.812 c -0.667,0 -1.1,0.246 -1.1,0.652 0,0.435 0.551,0.595 1.334,0.754 1.2,0.232 2.812,0.551 2.812,2.29 0,1.276 -1.087,2.247 -3.03,2.247 a 4.717,4.717 0 0 1 -3.131,-1.087 z"
       id="path42" />
    <path
       style="fill:#969696"
       inkscape:connector-curvature="0"
       d="m 131.876,81.945 c 2.087,0 3.508,1.565 3.508,3.856 v 0.406 h -5.2 a 1.886,1.886 0 0 0 2.016,1.623 2.865,2.865 0 0 0 1.87,-0.7 l 0.812,1.189 a 4.365,4.365 0 0 1 -2.885,0.971 3.675,3.675 0 1 1 -0.116,-7.349 z m -1.724,3.015 h 3.448 a 1.621,1.621 0 0 0 -1.725,-1.551 1.681,1.681 0 0 0 -1.723,1.551 z"
       id="path44" />
    <path
       style="fill:#969696"
       inkscape:connector-curvature="0"
       d="m 140.779,88.4 a 2.9,2.9 0 0 1 -2.218,0.9 2.333,2.333 0 0 1 -2.436,-2.319 2.218,2.218 0 0 1 2.436,-2.233 2.829,2.829 0 0 1 2.218,0.856 v -0.971 c 0,-0.711 -0.61,-1.175 -1.538,-1.175 a 2.952,2.952 0 0 0 -2.044,0.826 l -0.695,-1.232 a 4.6,4.6 0 0 1 3.059,-1.1 c 1.594,0 3.058,0.638 3.058,2.653 v 4.515 h -1.84 z m 0,-1.827 A 1.843,1.843 0 0 0 139.3,85.964 c -0.725,0 -1.319,0.377 -1.319,1.058 0,0.652 0.594,1.029 1.319,1.029 a 1.843,1.843 0 0 0 1.479,-0.608 z"
       id="path46" />
    <path
       style="fill:#969696"
       inkscape:connector-curvature="0"
       d="m 144.3,82.119 h 1.841 v 0.956 a 3,3 0 0 1 2.232,-1.116 v 1.8 a 2.261,2.261 0 0 0 -2.232,0.739 V 89.12 H 144.3 Z"
       id="path48" />
    <path
       style="fill:#969696"
       inkscape:connector-curvature="0"
       d="m 152.639,81.945 a 3.255,3.255 0 0 1 2.768,1.261 l -1.2,1.13 a 1.7,1.7 0 0 0 -1.478,-0.753 2.041,2.041 0 0 0 0,4.073 1.766,1.766 0 0 0 1.471,-0.756 l 1.2,1.117 a 3.225,3.225 0 0 1 -2.768,1.275 3.675,3.675 0 1 1 0,-7.349 z"
       id="path50" />
    <path
       style="fill:#969696"
       inkscape:connector-curvature="0"
       d="m 161.208,84.858 c 0,-0.971 -0.507,-1.275 -1.3,-1.275 a 2.042,2.042 0 0 0 -1.595,0.826 v 4.711 h -1.841 v -9.669 h 1.841 v 3.581 a 3.241,3.241 0 0 1 2.465,-1.087 2.016,2.016 0 0 1 2.275,2.2 v 4.975 h -1.841 z"
       id="path52" />
    <path
       style="fill:#969696"
       inkscape:connector-curvature="0"
       d="m 167.88,84.293 a 4.893,4.893 0 0 1 5.073,-5 4.465,4.465 0 0 1 4.118,2.363 l -1.769,0.869 a 2.65,2.65 0 0 0 -2.349,-1.406 3.183,3.183 0 0 0 0,6.35 2.622,2.622 0 0 0 2.349,-1.406 l 1.769,0.855 a 4.492,4.492 0 0 1 -4.118,2.377 4.893,4.893 0 0 1 -5.073,-5.002 z"
       id="path54" />
    <path
       style="fill:#969696"
       inkscape:connector-curvature="0"
       d="m 178.116,79.451 h 1.841 v 9.669 h -1.841 z"
       id="path56" />
    <path
       style="fill:#969696"
       inkscape:connector-curvature="0"
       d="m 181.191,85.612 a 3.7,3.7 0 1 1 3.7,3.682 3.545,3.545 0 0 1 -3.7,-3.682 z m 5.494,0 a 1.806,1.806 0 1 0 -1.8,2.044 1.848,1.848 0 0 0 1.8,-2.044 z"
       id="path58" />
    <path
       style="fill:#969696"
       inkscape:connector-curvature="0"
       d="m 194.543,88.236 a 3.273,3.273 0 0 1 -2.464,1.058 2,2 0 0 1 -2.261,-2.2 v -4.975 h 1.84 v 4.247 a 1.126,1.126 0 0 0 1.29,1.29 2.059,2.059 0 0 0 1.595,-0.8 v -4.74 h 1.841 v 7 h -1.841 z"
       id="path60" />
    <path
       style="fill:#969696"
       inkscape:connector-curvature="0"
       d="m 202.881,88.221 a 2.717,2.717 0 0 1 -2.159,1.073 c -1.769,0 -3.1,-1.333 -3.1,-3.667 0,-2.291 1.32,-3.682 3.1,-3.682 a 2.694,2.694 0 0 1 2.159,1.073 v -3.567 h 1.856 v 9.669 h -1.856 z m 0,-3.841 a 2,2 0 0 0 -1.595,-0.8 2.057,2.057 0 0 0 0,4.073 2,2 0 0 0 1.595,-0.8 z"
       id="path62" />
  </g>
</svg>
